PathFileType  4	(X/Y/Z) C:\Users\antoi\Documents\MyRepositories\mobilecap\ResultsAnalysis
DataRate	CameraRate	NumFrames	NumMarkers	Units	OrigDataRate	OrigDataStartFrame	OrigNumFrames
100.0	100.0	4	51	mm	100.0	1	1257
Frame#	Time	r_knee			r_shank_antsup			r_ankle			r_calc			r_5meta			r_toe			L_knee			L_shank_antsup			L_ankle			L_calc			L_5meta			L_toe			r_sh2			r_sh3			r_sh4			L_sh2			L_sh3			r_thigh1			r_thigh2			r_thigh3			r_thigh4			r_thigh5			L_thigh1			L_thigh2			L_thigh3			L_thigh4			r.ASIS			r.PSIS			L.ASIS			L.PSIS			C7			R_Shoulder			L_Shoulder			R_Sternum			L_Sternum			R_humerus			R_elbow_med			R_elbow_lat			R_forearm			R_wrist_radius			R_wrist_ulna			L_humerus			L_elbow_med			L_elbow_lat			L_forearm			L_wrist_radius			L_wrist_ulna			R_HJC			L_HJC			R_HJC_reg			L_HJC_reg			
		X1	Y1	Z1	X2	Y2	Z2	X3	Y3	Z3	X4	Y4	Z4	X5	Y5	Z5	X6	Y6	Z6	X7	Y7	Z7	X8	Y8	Z8	X9	Y9	Z9	X10	Y10	Z10	X11	Y11	Z11	X12	Y12	Z12	X13	Y13	Z13	X14	Y14	Z14	X15	Y15	Z15	X16	Y16	Z16	X17	Y17	Z17	X18	Y18	Z18	X19	Y19	Z19	X20	Y20	Z20	X21	Y21	Z21	X22	Y22	Z22	X23	Y23	Z23	X24	Y24	Z24	X25	Y25	Z25	X26	Y26	Z26	X27	Y27	Z27	X28	Y28	Z28	X29	Y29	Z29	X30	Y30	Z30	X31	Y31	Z31	X32	Y32	Z32	X33	Y33	Z33	X34	Y34	Z34	X35	Y35	Z35	X36	Y36	Z36	X37	Y37	Z37	X38	Y38	Z38	X39	Y39	Z39	X40	Y40	Z40	X41	Y41	Z41	X42	Y42	Z42	X43	Y43	Z43	X44	Y44	Z44	X45	Y45	Z45	X46	Y46	Z46	X47	Y47	Z47	X48	Y48	Z48	X49	Y49	Z49	X50	Y50	Z50	X51	Y51	Z51	

1	0.00000000	-246.38350	469.00675	-412.59877	-244.17234	397.97526	-387.75371	-269.42318	92.08110	-421.21335	-335.36951	56.21241	-459.77653	-167.80610	44.67711	-385.63326	-122.56239	64.25315	-439.81561	-250.86043	462.27731	-787.90489	-227.57159	406.09083	-810.43182	-269.41425	99.15149	-868.24708	-336.94621	57.81650	-826.53196	-177.50488	42.79839	-906.09143	-126.22576	65.67218	-853.20851	-247.52379	286.51023	-382.35575	-317.95107	398.49253	-401.36859	-328.34597	282.54115	-400.42650	-316.50123	418.28443	-813.83128	-317.89562	301.21421	-848.66526	-149.67871	775.26545	-436.01274	-150.92362	664.75789	-420.70240	-200.73202	644.66368	-381.21513	-247.80366	781.33727	-378.02231	-253.87943	664.18784	-382.44255	-177.95074	735.25346	-766.52027	-181.38563	598.44535	-781.43265	-295.08549	740.59397	-769.10953	-289.46589	599.12678	-780.59335	-155.98564	919.31713	-450.34480	-341.49004	932.51635	-528.19153	-157.88234	898.44539	-708.92105	-344.21462	918.82413	-633.99784	-291.85091	1389.99241	-569.12028	-226.40133	1338.71823	-413.15216	-215.63865	1344.21038	-735.02429	-167.02322	1313.50232	-549.62164	-166.02973	1313.14929	-593.19570	-234.63950	1105.56570	-326.34489	-255.04930	995.85962	-389.45998	-256.03019	1024.42686	-311.01073	-157.03157	1079.78766	-322.51561	-58.48903	1130.63259	-351.80595	-39.58217	1089.85734	-347.87335	-189.68639	1211.64192	-786.57236	-244.06174	995.38179	-743.41666	-247.03901	1007.62993	-815.70187	-144.04476	1057.10807	-814.55747	-41.47693	1104.72455	-779.00347	-23.76508	1072.64637	-786.69317	-223.52797	842.37057	-473.96786	-220.60850	828.21242	-673.73786	-219.88847	840.47944	-475.44478	-224.25963	818.51255	-645.19349	
2	0.01000000	-246.34715	468.95921	-412.84697	-244.05307	397.89483	-387.92031	-269.46060	92.04862	-421.21968	-335.40628	56.23939	-459.82431	-167.89802	44.69210	-385.56636	-122.53459	64.29003	-439.73641	-250.87090	462.27405	-787.89675	-227.64838	405.94421	-810.24170	-269.50320	99.15651	-868.29760	-336.92751	57.75244	-826.40599	-177.50225	42.80145	-906.08742	-126.25063	65.68681	-853.19530	-247.23369	286.75076	-382.33011	-317.83975	398.47666	-401.39424	-328.32172	282.57420	-400.41604	-316.51784	418.26324	-813.78247	-318.15467	300.85593	-848.54500	-149.62585	775.30923	-436.03531	-150.68723	664.64795	-420.84101	-200.64007	644.59615	-381.22557	-247.74647	781.37907	-377.94483	-253.93755	663.96982	-382.51995	-177.96846	735.25906	-766.51944	-181.45689	598.47165	-781.61944	-295.11114	740.59468	-769.09968	-289.48626	599.16735	-780.67314	-156.12985	919.47490	-450.59858	-341.57585	932.45032	-528.17291	-157.92905	898.44548	-708.93629	-344.24308	918.80966	-634.01872	-291.86395	1389.98008	-569.08875	-226.61057	1338.68942	-413.23118	-215.53968	1344.25184	-734.87500	-166.97023	1313.57891	-549.62436	-165.93866	1313.28238	-593.12631	-234.70158	1105.53862	-326.34786	-254.90632	995.95292	-389.39136	-256.05430	1024.44037	-310.93532	-156.98165	1079.79222	-322.44418	-58.48594	1130.67977	-351.70248	-39.65848	1089.85785	-347.83533	-189.51705	1211.75838	-786.64711	-244.06923	995.39117	-743.46132	-246.88734	1007.70404	-815.78333	-143.89324	1057.14590	-814.44895	-41.42240	1104.76457	-778.92988	-23.60199	1072.78638	-786.67950	-223.53645	842.45563	-474.00628	-220.64191	828.20883	-673.77034	-219.88835	840.45180	-475.72209	-224.16250	818.59299	-645.33698	
3	0.02000000	-246.17822	469.00771	-412.99335	-243.92647	397.85831	-388.04056	-269.47010	92.03885	-421.21542	-335.43561	56.25181	-459.84799	-167.91770	44.71699	-385.57664	-122.53562	64.29229	-439.70255	-250.89072	462.28397	-787.89577	-227.68738	405.88563	-810.17890	-269.55636	99.17025	-868.35956	-336.96016	57.73318	-826.41256	-177.50031	42.80207	-906.08518	-126.27198	65.70454	-853.18184	-247.09270	286.87015	-382.30804	-317.76258	398.44106	-401.49623	-328.26289	282.67177	-400.39528	-316.53690	418.25507	-813.75825	-318.07833	300.96544	-848.56890	-149.58186	775.36672	-436.09255	-150.57808	664.74606	-420.86134	-200.55027	644.59422	-381.21810	-247.69125	781.36578	-377.92533	-253.86364	663.92203	-382.62943	-177.99841	735.24837	-766.52135	-181.50502	598.47068	-781.68114	-295.13999	740.59666	-769.09129	-289.50939	599.16160	-780.64146	-156.22280	919.62366	-450.73135	-341.67458	932.42079	-528.18838	-157.97895	898.46130	-708.96691	-344.28660	918.80102	-634.04181	-291.83951	1389.99513	-569.12241	-226.78639	1338.65454	-413.28247	-215.46514	1344.30800	-734.80146	-166.90789	1313.65153	-549.59545	-165.83533	1313.38669	-593.01679	-234.77191	1105.53444	-326.27013	-254.93990	995.99961	-389.42848	-256.00781	1024.46169	-310.82834	-156.96859	1079.80807	-322.36988	-58.48619	1130.78420	-351.58447	-39.64669	1089.94620	-347.71580	-189.37086	1211.86383	-786.69839	-243.81818	995.66831	-743.33487	-246.68153	1007.79630	-815.88093	-143.72195	1057.20424	-814.35674	-41.35944	1104.79980	-778.83047	-23.45151	1072.88110	-786.54971	-223.55667	842.54540	-474.02856	-220.67100	828.21895	-673.78706	-219.91076	840.45716	-475.87618	-224.09480	818.64033	-645.43802	
4	0.03000000	-245.93328	469.11904	-413.02938	-243.80900	397.86340	-388.12654	-269.46190	92.05779	-421.20658	-335.44758	56.25787	-459.87546	-167.89531	44.71355	-385.65711	-122.55042	64.28059	-439.71058	-250.92645	462.27807	-787.89315	-227.70214	405.87649	-810.19878	-269.56427	99.16898	-868.39859	-336.99200	57.75232	-826.49202	-177.50144	42.79738	-906.08889	-126.27395	65.70897	-853.17397	-246.94626	286.86238	-382.30050	-317.63609	398.43866	-401.59376	-328.16431	282.84803	-400.39723	-316.54462	418.20714	-813.68963	-317.96766	301.19505	-848.54975	-149.53771	775.45780	-436.18333	-150.45367	664.83180	-420.89952	-200.43364	644.62479	-381.21540	-247.62035	781.36374	-377.87731	-253.69709	663.98652	-382.68708	-178.04373	735.20973	-766.54481	-181.53929	598.45761	-781.65493	-295.17523	740.58766	-769.09413	-289.57179	599.10327	-780.50352	-156.37460	919.72083	-450.77899	-341.82217	932.44806	-528.25948	-158.03546	898.47093	-708.98460	-344.38021	918.73604	-634.08179	-291.80322	1390.00454	-569.14871	-226.90898	1338.61278	-413.27626	-215.35947	1344.37074	-734.74167	-166.84378	1313.70893	-549.56092	-165.74039	1313.45431	-592.94311	-234.83043	1105.53470	-326.11652	-254.84960	996.10210	-389.49511	-255.91105	1024.45539	-310.69614	-156.90624	1079.87031	-322.27300	-58.49117	1130.92357	-351.47461	-39.55493	1090.09482	-347.51404	-189.23690	1211.95974	-786.73869	-243.45496	996.09019	-743.15245	-246.47063	1007.92095	-816.03292	-143.51258	1057.32731	-814.31681	-41.21506	1104.86804	-778.70668	-23.29552	1072.94634	-786.36429	-223.66294	842.61725	-474.03585	-220.72593	828.20976	-673.78777	-220.06240	840.60460	-475.88728	-224.16052	818.63780	-645.41619	
